#!OML:ASF I:\Actors\actors\Patient Classification 2\Patient 1\Session 1\actor1.ASF
:FULLY-SPECIFIED
:DEGREES
266
root -0.434976 18.602 6.55919 -1.47266 7.65198 -3.51024
lowerback 7.58234 -0.553325 -1.02154
upperback -5.39088 -0.843029 0.23683
thorax -9.99092 -0.325496 0.96237
lowerneck -27.6189 -5.76583 -4.55687
upperneck 4.63583 -7.02241 8.0242
head 6.16344 -2.75558 2.45861
rclavicle 7.15625e-015 1.19271e-014
rhumerus 7.28361 25.1844 -63.0207
rradius 80.0714
rwrist 8.74525
rhand -3.95086 -43.0787
rfingers 7.12502
rthumb 21.8011 -71.8708
lclavicle 7.15625e-015 1.19271e-014
lhumerus -23.4673 -52.7093 89.2733
lradius 90.8548
lwrist 13.739
lhand 24.4805 10.1497
lfingers 7.12502
lthumb 48.6837 32.0371
rfemur 13.9252 -6.08647 16.6247
rtibia -1.43125e-014
rfoot -18.4908 -13.3868
rtoes -11.3478
lfemur -5.16365 -6.56423 -11.9949
ltibia 26.9101
lfoot -21.6316 6.72175
ltoes -57.7846
267
root -0.438827 18.5984 6.54908 -1.86997 7.54942 -3.32773
lowerback 7.56424 -0.394772 -1.26084
upperback -5.59384 -0.670409 0.115838
thorax -10.2087 -0.227344 0.94108
lowerneck -27.4708 -5.69517 -4.14775
upperneck 4.72185 -7.04228 7.7629
head 6.14571 -2.78052 2.30722
rclavicle -1.46107e-014 1.59028e-014
rhumerus 7.47176 25.2588 -63.1976
rradius 78.2971
rwrist 9.38306
rhand -4.25633 -43.1214
rfingers 7.12502
rthumb 21.5078 -71.9473
lclavicle -1.46107e-014 1.59028e-014
lhumerus -21.9917 -52.8588 87.6283
lradius 91.9571
lwrist 14.7058
lhand 24.513 10.2876
lfingers 7.12502
lthumb 48.7137 32.1604
rfemur 14.3392 -5.93462 16.3982
rtibia -1.59028e-015
rfoot -18.5141 -13.3883
rtoes -11.0494
lfemur -4.66355 -6.71761 -12.2602
ltibia 26.8492
lfoot -21.7638 6.85443
ltoes -57.7305
268
root -0.439966 18.5876 6.55399 -2.26736 7.77158 -3.71706
lowerback 7.11462 -0.384584 -0.909733
upperback -5.69553 -0.600829 0.207431
thorax -10.0558 -0.215433 0.826443
lowerneck -27.2916 -5.67994 -4.03168
upperneck 4.69998 -7.04761 7.63746
head 6.10335 -2.79574 2.24942
rclavicle -7.45443e-015 -1.63003e-014
rhumerus 7.68386 25.5337 -63.1392
rradius 76.5981
rwrist 9.81707
rhand -4.424 -43.4874
rfingers 7.12502
rthumb 21.3468 -72.3316
lclavicle -7.45443e-015 -1.63003e-014
lhumerus -20.277 -52.9052 85.9279
lradius 92.8556
lwrist 15.0644
lhand 24.3424 9.74475
lfingers 7.12502
lthumb 48.5568 31.6936
rfemur 14.779 -6.13699 16.768
rtibia 3.81667e-014
rfoot -18.6816 -13.342
rtoes -10.8456
lfemur -4.28014 -6.81837 -11.8452
ltibia 26.7994
lfoot -21.8228 6.59718
ltoes -57.6348
269
root -0.444702 18.5822 6.5523 -2.58757 7.79348 -3.73357
lowerback 6.82836 -0.262454 -1.03303
upperback -5.84476 -0.439454 0.298478
thorax -10.0521 -0.123922 0.966155
lowerneck -27.1747 -5.73367 -4.18545
upperneck 4.7209 -7.05865 7.54333
head 6.09414 -2.81457 2.24225
rclavicle 2.38542e-015 3.97569e-015
rhumerus 7.49963 25.9275 -63.075
rradius 75.1257
rwrist 10.0114
rhand -4.69262 -44.0533
rfingers 7.12502
rthumb 21.0887 -72.9265
lclavicle 2.38542e-015 3.97569e-015
lhumerus -18.4768 -52.8844 84.4139
lradius 93.7019
lwrist 15.1784
lhand 24.1243 9.67577
lfingers 7.12502
lthumb 48.3559 31.7208
rfemur 15.1329 -6.12745 16.7688
rtibia -2.8625e-014
rfoot -18.8477 -13.2877
rtoes -10.6177
lfemur -3.9121 -6.85566 -11.8564
ltibia 26.7436
lfoot -21.882 6.64756
ltoes -57.7471
270
root -0.449183 18.5781 6.54382 -2.85227 7.67768 -3.58325
lowerback 6.69822 -0.07773 -1.13437
upperback -5.86785 -0.206217 0.236462
thorax -10.0056 -0.00660344 0.920387
lowerneck -27.6316 -5.80943 -4.2319
upperneck 4.89362 -7.11644 7.41237
head 6.2132 -2.8396 2.19244
rclavicle -3.18055e-015 -7.95139e-016
rhumerus 7.51208 26.1556 -63.0822
rradius 73.5523
rwrist 10.1776
rhand -5.03691 -44.3119
rfingers 7.12502
rthumb 20.7579 -73.2216
lclavicle -3.18055e-015 -7.95139e-016
lhumerus -15.917 -52.9011 82.2173
lradius 94.5508
lwrist 15.9456
lhand 23.9829 10.1594
lfingers 7.12502
lthumb 48.2257 32.2662
rfemur 15.4055 -5.97346 16.61
rtibia -3.97569e-014
rfoot -18.9265 -13.248
rtoes -10.4
lfemur -3.58841 -6.91486 -12.062
ltibia 26.7248
lfoot -22.0133 6.83418
ltoes -57.879
271
root -0.451117 18.5721 6.53571 -3.14052 7.5551 -3.57553
lowerback 6.45556 0.0458942 -1.17922
upperback -5.742 -0.0340179 0.319078
thorax -9.7258 0.0807754 1.00657
lowerneck -28.7113 -5.85101 -4.24493
upperneck 5.3666 -7.11702 7.16067
head 6.50834 -2.82809 2.09609
rclavicle -2.08724e-015 -9.54166e-015
rhumerus 7.94898 26.5372 -62.8886
rradius 71.8718
rwrist 10.4346
rhand -5.48453 -44.2554
rfingers 7.12502
rthumb 20.3278 -73.2116
lclavicle -2.08724e-015 -9.54166e-015
lhumerus -12.9721 -52.5451 79.7584
lradius 95.3306
lwrist 17.0425
lhand 23.9642 10.3499
lfingers 7.12502
lthumb 48.2085 32.4648
rfemur 15.6798 -5.81941 16.5966
rtibia 0
rfoot -18.9743 -13.2465
rtoes -10.2933
lfemur -3.22864 -7.04888 -12.1207
ltibia 26.6657
lfoot -22.1704 6.97072
ltoes -57.8133
272
root -0.453326 18.5635 6.53395 -3.45579 7.55078 -3.63032
lowerback 6.24295 0.091627 -1.14973
upperback -5.6664 0.0413532 0.410174
thorax -9.51783 0.117177 1.07531
lowerneck -29.8345 -5.88337 -4.22439
upperneck 5.98855 -7.12149 6.9048
head 6.85873 -2.81648 1.99058
rclavicle -6.55989e-015 -9.14409e-015
rhumerus 8.14282 26.947 -62.9818
rradius 70.3232
rwrist 11.0094
rhand -5.85038 -44.1854
rfingers 7.12502
rthumb 19.9762 -73.1786
lclavicle -6.55989e-015 -9.14409e-015
lhumerus -10.2799 -52.0371 77.4633
lradius 96.0565
lwrist 18.1596
lhand 23.8568 10.3896
lfingers 7.12502
lthumb 48.1095 32.5511
rfemur 16.0164 -5.78416 16.6298
rtibia -1.90833e-014
rfoot -19.0426 -13.2432
rtoes -10.5538
lfemur -2.84612 -7.19383 -12.1095
ltibia 26.6146
lfoot -22.3185 7.02141
ltoes -57.786
273
root -0.457351 18.5549 6.53176 -3.73218 7.57465 -3.63896
lowerback 6.33004 0.210129 -0.820498
upperback -5.84249 0.217673 0.206108
thorax -9.7656 0.174097 0.647726
lowerneck -30.461 -6.06906 -4.36566
upperneck 6.54071 -7.33963 7.02578
head 7.15491 -2.88611 2.00977
rclavicle -7.25564e-015 -2.46493e-014
rhumerus 8.29163 27.8489 -62.7959
rradius 68.7091
rwrist 10.746
rhand -6.16376 -44.6949
rfingers 7.12502
rthumb 19.6749 -73.7193
lclavicle -7.25564e-015 -2.46493e-014
lhumerus -7.97822 -51.9601 75.3548
lradius 96.7504
lwrist 19.3689
lhand 23.6623 10.6667
lfingers 7.12502
lthumb 47.9302 32.912
rfemur 16.3214 -5.77598 16.6168
rtibia -2.54444e-014
rfoot -19.1126 -13.2081
rtoes -10.865
lfemur -2.54505 -7.28264 -12.1314
ltibia 26.6361
lfoot -22.4565 7.0247
ltoes -57.8082
274
root -0.464289 18.5492 6.51856 -3.94069 7.35149 -3.53144
lowerback 6.81312 0.498449 -1.04276
upperback -6.203 0.581501 0.261908
thorax -10.4666 0.37355 0.773852
lowerneck -31.0957 -6.33603 -4.7656
upperneck 7.21494 -7.53964 6.95248
head 7.49269 -2.97288 2.00399
rclavicle 1.49089e-015 -9.54166e-015
rhumerus 7.37072 28.4574 -62.8654
rradius 67.5201
rwrist 10.7323
rhand -6.37829 -44.8454
rfingers 7.12502
rthumb 19.4687 -73.8907
lclavicle 1.49089e-015 -9.54166e-015
lhumerus -6.0519 -51.7497 74.0929
lradius 97.3911
lwrist 20.4206
lhand 23.6983 11.119
lfingers 7.12502
lthumb 47.9634 33.3489
rfemur 16.4867 -5.52094 16.529
rtibia 4.45278e-014
rfoot -19.1759 -13.1642
rtoes -10.7695
lfemur -2.30826 -7.31868 -12.2792
ltibia 26.6853
lfoot -22.6229 7.20743
ltoes -57.7851
